<svg width="19" height="18" viewBox="0 0 19 18" fill="none" xmlns="http://www.w3.org/2000/svg">
<path d="M16.0876 9.39804L11.0407 14.4605C10.9355 14.5661 10.7927 14.6254 10.6439 14.6254C10.4951 14.6254 10.3524 14.5661 10.2472 14.4605C10.142 14.355 10.0829 14.2118 10.0829 14.0626C10.0829 13.9133 10.142 13.7701 10.2472 13.6646L14.3373 9.56257H3.35398C3.20525 9.56257 3.06262 9.50331 2.95746 9.39782C2.85229 9.29233 2.79321 9.14925 2.79321 9.00007C2.79321 8.85088 2.85229 8.70781 2.95746 8.60232C3.06262 8.49683 3.20525 8.43757 3.35398 8.43757H14.3373L10.2472 4.33554C10.142 4.22999 10.0829 4.08684 10.0829 3.93757C10.0829 3.7883 10.142 3.64515 10.2472 3.5396C10.3524 3.43405 10.4951 3.37476 10.6439 3.37476C10.7927 3.37476 10.9355 3.43405 11.0407 3.5396L16.0876 8.6021C16.1397 8.65434 16.1811 8.71638 16.2093 8.78466C16.2375 8.85295 16.252 8.92615 16.252 9.00007C16.252 9.07399 16.2375 9.14719 16.2093 9.21547C16.1811 9.28376 16.1397 9.3458 16.0876 9.39804Z" fill="white"/>
</svg>
