<svg width="15" height="19" viewBox="0 0 15 19" fill="none" xmlns="http://www.w3.org/2000/svg">
<g clip-path="url(#clip0_72_203)">
<path d="M13.4375 3.2688H12.0834V4.28515H13.3334V15.4651H1.66669V4.28515H2.91669V3.2688H1.56253C1.46512 3.27078 1.369 3.29615 1.27964 3.34345C1.19028 3.39076 1.10943 3.45907 1.04172 3.54448C0.974006 3.6299 0.920754 3.73074 0.885003 3.84126C0.849252 3.95178 0.831704 4.06981 0.833359 4.1886V15.5616C0.831704 15.6804 0.849252 15.7984 0.885003 15.909C0.920754 16.0195 0.974006 16.1203 1.04172 16.2057C1.10943 16.2912 1.19028 16.3595 1.27964 16.4068C1.369 16.4541 1.46512 16.4794 1.56253 16.4814H13.4375C13.5349 16.4794 13.6311 16.4541 13.7204 16.4068C13.8098 16.3595 13.8906 16.2912 13.9583 16.2057C14.026 16.1203 14.0793 16.0195 14.115 15.909C14.1508 15.7984 14.1683 15.6804 14.1667 15.5616V4.1886C14.1683 4.06981 14.1508 3.95178 14.115 3.84126C14.0793 3.73074 14.026 3.6299 13.9583 3.54448C13.8906 3.45907 13.8098 3.39076 13.7204 3.34345C13.6311 3.29615 13.5349 3.27078 13.4375 3.2688Z" fill="white"/>
<path d="M3.33325 7.33423H4.16659V8.35058H3.33325V7.33423Z" fill="white"/>
<path d="M5.83325 7.33423H6.66659V8.35058H5.83325V7.33423Z" fill="white"/>
<path d="M8.33325 7.33423H9.16659V8.35058H8.33325V7.33423Z" fill="white"/>
<path d="M10.8333 7.33423H11.6666V8.35058H10.8333V7.33423Z" fill="white"/>
<path d="M3.33325 9.875H4.16659V10.8914H3.33325V9.875Z" fill="white"/>
<path d="M5.83325 9.875H6.66659V10.8914H5.83325V9.875Z" fill="white"/>
<path opacity="0.1" d="M8.33325 9.875H9.16659V10.8914H8.33325V9.875Z" fill="white"/>
<path d="M10.8333 9.875H11.6666V10.8914H10.8333V9.875Z" fill="white"/>
<path d="M3.33325 12.416H4.16659V13.4324H3.33325V12.416Z" fill="white"/>
<path d="M5.83325 12.416H6.66659V13.4324H5.83325V12.416Z" fill="white"/>
<path d="M8.33325 12.416H9.16659V13.4324H8.33325V12.416Z" fill="white"/>
<path d="M10.8333 12.416H11.6666V13.4324H10.8333V12.416Z" fill="white"/>
<path d="M4.16667 5.30151C4.27717 5.30151 4.38315 5.24796 4.46129 5.15266C4.53943 5.05736 4.58333 4.9281 4.58333 4.79333V1.74426C4.58333 1.60948 4.53943 1.48023 4.46129 1.38493C4.38315 1.28962 4.27717 1.23608 4.16667 1.23608C4.05616 1.23608 3.95018 1.28962 3.87204 1.38493C3.7939 1.48023 3.75 1.60948 3.75 1.74426V4.79333C3.75 4.9281 3.7939 5.05736 3.87204 5.15266C3.95018 5.24796 4.05616 5.30151 4.16667 5.30151Z" fill="white"/>
<path d="M10.8334 5.30151C10.9439 5.30151 11.0499 5.24796 11.128 5.15266C11.2062 5.05736 11.2501 4.9281 11.2501 4.79333V1.74426C11.2501 1.60948 11.2062 1.48023 11.128 1.38493C11.0499 1.28962 10.9439 1.23608 10.8334 1.23608C10.7229 1.23608 10.6169 1.28962 10.5388 1.38493C10.4606 1.48023 10.4167 1.60948 10.4167 1.74426V4.79333C10.4167 4.9281 10.4606 5.05736 10.5388 5.15266C10.6169 5.24796 10.7229 5.30151 10.8334 5.30151Z" fill="white"/>
<path d="M5.41675 3.2688H9.58341V4.28515H5.41675V3.2688Z" fill="white"/>
</g>
<defs>
<clipPath id="clip0_72_203">
<rect width="15" height="18.2944" fill="white" transform="translate(0 0.219727)"/>
</clipPath>
</defs>
</svg>
