<svg width="15" height="13" viewBox="0 0 15 13" fill="none" xmlns="http://www.w3.org/2000/svg">
<path d="M0.327805 11.4873H14.1566V12.3505H0.327805V11.4873ZM5.99761 1.62473L8.80782 5.13812L9.20293 5.63449L9.86967 5.4791L12.102 4.95684C12.2831 4.91372 12.4741 4.91372 12.6552 4.95684C12.7969 4.98806 12.9279 5.0487 13.0371 5.13361C13.1463 5.21852 13.2305 5.32519 13.2824 5.44457C13.3269 5.54862 13.3463 5.65957 13.3395 5.77047C13.3326 5.88137 13.2996 5.98985 13.2426 6.08911C13.1856 6.18837 13.1057 6.27628 13.0081 6.34733C12.9104 6.41838 12.797 6.47105 12.6749 6.50204L3.43434 8.66015C3.2731 8.70139 3.10171 8.70139 2.94046 8.66015C2.78635 8.62108 2.64655 8.54759 2.53483 8.44693C2.42311 8.34626 2.34333 8.2219 2.30335 8.08609L2.17988 7.68469L1.80946 6.47183L1.44399 5.28919L2.15518 5.12086L3.29112 6.45888L3.69117 6.92503L4.33815 6.77396L5.72103 6.45025L6.67917 6.22581L6.42235 5.39278L5.30617 1.78443L5.99761 1.62473ZM6.33345 0.696745C6.25232 0.679536 6.16765 0.679536 6.08651 0.696745L4.5604 1.05499C4.4422 1.08707 4.34209 1.15678 4.27989 1.2503C4.2177 1.34382 4.19795 1.45435 4.22456 1.55999L5.45928 5.59996L4.07146 5.92367L2.72315 4.36552C2.65903 4.29081 2.56892 4.23629 2.46633 4.21014C2.38519 4.19293 2.30052 4.19293 2.21939 4.21014L0.683403 4.58133C0.562564 4.60987 0.458633 4.67744 0.392621 4.77038C0.32661 4.86333 0.303443 4.97471 0.327805 5.08201L0.821691 6.69627L1.1921 7.90481L1.31558 8.31053C1.4023 8.59421 1.57305 8.85291 1.81063 9.06053C2.04821 9.26816 2.34422 9.41739 2.66882 9.49318C2.99251 9.56801 3.3329 9.56801 3.65659 9.49318L12.8923 7.33507C13.3002 7.24379 13.6618 7.03644 13.92 6.74573C14.1782 6.45501 14.3184 6.09746 14.3184 5.72944C14.3184 5.36142 14.1782 5.00387 13.92 4.71316C13.6618 4.42244 13.3002 4.2151 12.8923 4.12381C12.5425 4.04391 12.1752 4.04391 11.8255 4.12381L9.59803 4.64607L6.60015 0.873709C6.53754 0.789379 6.44322 0.726791 6.33345 0.696745Z" fill="white"/>
</svg>
