<svg width="21" height="9" viewBox="0 0 21 9" fill="none" xmlns="http://www.w3.org/2000/svg">
<path fill-rule="evenodd" clip-rule="evenodd" d="M6.93739 2.45676C6.93739 2.52716 6.98678 2.59468 7.07469 2.64446C7.1626 2.69425 7.28182 2.72221 7.40614 2.72221L18.4621 2.72221L15.5118 4.39242C15.4238 4.44226 15.3743 4.50987 15.3743 4.58036C15.3743 4.65085 15.4238 4.71845 15.5118 4.7683C15.5998 4.81814 15.7192 4.84614 15.8436 4.84614C15.9681 4.84614 16.0875 4.81814 16.1755 4.7683L19.9255 2.6447C19.9692 2.62004 20.0038 2.59075 20.0274 2.5585C20.0511 2.52625 20.0632 2.49168 20.0632 2.45676C20.0632 2.42185 20.0511 2.38727 20.0274 2.35503C20.0038 2.32278 19.9692 2.29348 19.9255 2.26882L16.1755 0.145229C16.1319 0.120549 16.0802 0.100971 16.0233 0.0876143C15.9663 0.0742574 15.9053 0.0673826 15.8436 0.0673826C15.7192 0.0673826 15.5998 0.0953848 15.5118 0.145229C15.4238 0.195073 15.3743 0.262677 15.3743 0.333167C15.3743 0.403658 15.4238 0.471261 15.5118 0.521106L18.4621 2.19131L7.40615 2.19131C7.28182 2.19131 7.1626 2.21928 7.07469 2.26906C6.98678 2.31884 6.93739 2.38636 6.93739 2.45676Z" fill="white"/>
<g clip-path="url(#clip0_72_714)">
<path fill-rule="evenodd" clip-rule="evenodd" d="M14.0626 4.34402C14.0626 4.27362 14.0132 4.2061 13.9253 4.15632C13.8374 4.10654 13.7182 4.07857 13.5939 4.07857L2.53792 4.07857L5.48823 2.40836C5.57625 2.35852 5.6257 2.29091 5.6257 2.22042C5.6257 2.14993 5.57625 2.08233 5.48823 2.03248C5.40021 1.98264 5.28083 1.95464 5.15636 1.95464C5.03188 1.95464 4.9125 1.98264 4.82448 2.03248L1.07448 4.15608C1.03083 4.18074 0.996194 4.21003 0.972563 4.24228C0.948931 4.27453 0.936768 4.3091 0.936768 4.34402C0.936768 4.37893 0.948931 4.41351 0.972563 4.44576C0.996194 4.47801 1.03083 4.5073 1.07448 4.53196L4.82448 6.65555C4.86806 6.68023 4.9198 6.69981 4.97675 6.71317C5.03369 6.72652 5.09472 6.7334 5.15636 6.7334C5.28083 6.7334 5.40021 6.7054 5.48823 6.65555C5.57625 6.60571 5.6257 6.5381 5.6257 6.46761C5.6257 6.39712 5.57625 6.32952 5.48823 6.27968L2.53792 4.60947L13.5939 4.60947C13.7182 4.60947 13.8374 4.5815 13.9253 4.53172C14.0132 4.48194 14.0626 4.41442 14.0626 4.34402Z" fill="white"/>
</g>
<defs>
<clipPath id="clip0_72_714">
<rect width="8.49438" height="15" fill="white" transform="translate(0 8.59131) rotate(-90)"/>
</clipPath>
</defs>
</svg>
