<svg width="26" height="26" viewBox="0 0 26 26" fill="none" xmlns="http://www.w3.org/2000/svg">
<path d="M18.44 11.5068V9.5017C18.44 8.9548 18.522 8.63423 18.6837 8.442C18.8291 8.26918 19.1363 8.0907 19.8848 8.0907H21.9622H22.4622V7.5907V4.0807V3.64305L22.0284 3.5851C21.6431 3.53363 20.3883 3.426 18.9345 3.426C17.3349 3.426 15.9359 3.91556 14.9354 4.90414C13.9334 5.89426 13.3866 7.33004 13.3866 9.113V11.5081H10.4988H9.9988V12.0081V15.9315V16.4315H10.4988H13.3866V25.5H1.4352C0.918342 25.5 0.5 25.0817 0.5 24.5648V1.4352C0.5 0.918342 0.918342 0.5 1.4352 0.5H24.5648C25.0817 0.5 25.5 0.918342 25.5 1.4352V24.5648C25.5 25.0817 25.0817 25.5 24.5648 25.5H18.4387V16.4302H21.3187H21.7582L21.8146 15.9943L22.3216 12.0709L22.3945 11.5068H21.8257H18.44Z" fill="black" stroke="black"/>
</svg>
