<svg width="26" height="26" viewBox="0 0 26 26" fill="none" xmlns="http://www.w3.org/2000/svg">
<path d="M14.3364 0C15.7988 0.00389991 16.5411 0.0116997 17.182 0.0298993L17.4342 0.0389991C17.7253 0.0493988 18.0126 0.0623985 18.3597 0.0779981C19.7428 0.142997 20.6866 0.361392 21.5146 0.682484C22.3726 1.01268 23.0954 1.45987 23.8181 2.18135C24.4791 2.8312 24.9906 3.61728 25.317 4.4849C25.638 5.31298 25.8564 6.25675 25.9214 7.64122C25.937 7.98701 25.95 8.27431 25.9604 8.5668L25.9682 8.81899C25.9877 9.45858 25.9955 10.2009 25.9981 11.6633L25.9994 12.6331V14.3361C26.0026 15.2843 25.9926 16.2325 25.9695 17.1804L25.9617 17.4326C25.9513 17.7251 25.9383 18.0124 25.9227 18.3582C25.8577 19.7426 25.6367 20.6851 25.317 21.5145C24.9916 22.3826 24.48 23.1689 23.8181 23.818C23.1681 24.4788 22.3821 24.9903 21.5146 25.3169C20.6866 25.638 19.7428 25.8564 18.3597 25.9214C18.0513 25.9359 17.7427 25.9489 17.4342 25.9604L17.182 25.9682C16.5411 25.9864 15.7988 25.9955 14.3364 25.9981L13.3667 25.9994H11.6651C10.7164 26.0027 9.76783 25.9927 8.8195 25.9695L8.56731 25.9617C8.25872 25.95 7.9502 25.9366 7.64176 25.9214C6.25863 25.8564 5.31488 25.638 4.48552 25.3169C3.61803 24.9911 2.83229 24.4795 2.18334 23.818C1.52173 23.1684 1.00979 22.3823 0.683215 21.5145C0.362132 20.6864 0.143743 19.7426 0.078746 18.3582C0.0642632 18.0497 0.0512637 17.7412 0.039748 17.4326L0.0332485 17.1804C0.00929341 16.2325 -0.00154053 15.2843 0.000750063 14.3361V11.6633C-0.00287801 10.7151 0.00665585 9.76693 0.0293487 8.81899L0.0384482 8.5668C0.0488477 8.27431 0.061847 7.98701 0.0774462 7.64122C0.142443 6.25675 0.360831 5.31428 0.681915 4.4849C1.00835 3.61639 1.52131 2.83006 2.18464 2.18135C2.83342 1.52028 3.61865 1.00876 4.48552 0.682484C5.31488 0.361392 6.25733 0.142997 7.64176 0.0779981C7.98754 0.0623985 8.27613 0.0493988 8.56731 0.0389991L8.8195 0.0311992C9.7674 0.00810233 10.7156 -0.00186506 11.6638 0.00129988L14.3364 0ZM13.0001 6.49985C11.2763 6.49985 9.62305 7.18465 8.40413 8.40361C7.1852 9.62257 6.50042 11.2758 6.50042 12.9997C6.50042 14.7236 7.1852 16.3768 8.40413 17.5958C9.62305 18.8147 11.2763 19.4995 13.0001 19.4995C14.7239 19.4995 16.3771 18.8147 17.596 17.5958C18.815 16.3768 19.4998 14.7236 19.4998 12.9997C19.4998 11.2758 18.815 9.62257 17.596 8.40361C16.3771 7.18465 14.7239 6.49985 13.0001 6.49985ZM13.0001 9.09979C13.5122 9.0997 14.0193 9.20049 14.4925 9.3964C14.9657 9.59231 15.3957 9.87951 15.7578 10.2416C16.12 10.6037 16.4074 11.0335 16.6034 11.5067C16.7995 11.9798 16.9004 12.4869 16.9005 12.999C16.9006 13.5112 16.7998 14.0183 16.6039 14.4915C16.408 14.9647 16.1208 15.3947 15.7588 15.7569C15.3967 16.1191 14.9668 16.4064 14.4937 16.6025C14.0206 16.7986 13.5135 16.8995 13.0014 16.8996C11.9671 16.8996 10.9752 16.4887 10.2438 15.7573C9.51245 15.026 9.10158 14.034 9.10158 12.9997C9.10158 11.9654 9.51245 10.9734 10.2438 10.242C10.9752 9.51067 11.9671 9.09979 13.0014 9.09979M19.826 4.54989C19.3951 4.54989 18.9818 4.72109 18.677 5.02583C18.3723 5.33057 18.2011 5.74389 18.2011 6.17486C18.2011 6.60582 18.3723 7.01914 18.677 7.32388C18.9818 7.62862 19.3951 7.79982 19.826 7.79982C20.257 7.79982 20.6703 7.62862 20.975 7.32388C21.2798 7.01914 21.451 6.60582 21.451 6.17486C21.451 5.74389 21.2798 5.33057 20.975 5.02583C20.6703 4.72109 20.257 4.54989 19.826 4.54989Z" fill="black"/>
</svg>
