<svg width="15" height="16" viewBox="0 0 15 16" fill="none" xmlns="http://www.w3.org/2000/svg">
<path d="M5.625 12.1067H9.375V13.2865H5.625C3.9 13.2865 2.5 11.9652 2.5 10.3371V5.02807H3.75V10.3371C3.75 11.3163 4.5875 12.1067 5.625 12.1067ZM6.5125 4.09015C7 3.63004 7 2.88088 6.5125 2.42077C6.025 1.96066 5.23125 1.96066 4.74375 2.42077C4.25625 2.88088 4.25625 3.63004 4.74375 4.09015C5.23125 4.55616 6.01875 4.55616 6.5125 4.09015ZM7.1875 6.20785C7.1875 5.55897 6.625 5.02807 5.9375 5.02807H5.625C4.9375 5.02807 4.375 5.55897 4.375 6.20785V9.74717C4.375 10.7264 5.2125 11.5168 6.25 11.5168H9.41875L11.6062 13.5814L12.5 12.7379L9.33125 9.74717H7.1875V6.20785Z" fill="#8F8F8F"/>
</svg>
