<svg width="15" height="16" viewBox="0 0 15 16" fill="none" xmlns="http://www.w3.org/2000/svg">
<path d="M5.625 12.7255H9.375V13.9755H5.625C3.9 13.9755 2.5 12.5755 2.5 10.8505V5.22554H3.75V10.8505C3.75 11.888 4.5875 12.7255 5.625 12.7255ZM6.5125 4.23179C7 3.74429 7 2.95054 6.5125 2.46304C6.025 1.97554 5.23125 1.97554 4.74375 2.46304C4.25625 2.95054 4.25625 3.74429 4.74375 4.23179C5.23125 4.72554 6.01875 4.72554 6.5125 4.23179ZM7.1875 6.47554C7.1875 5.78804 6.625 5.22554 5.9375 5.22554H5.625C4.9375 5.22554 4.375 5.78804 4.375 6.47554V10.2255C4.375 11.263 5.2125 12.1005 6.25 12.1005H9.41875L11.6062 14.288L12.5 13.3943L9.33125 10.2255H7.1875V6.47554Z" fill="white"/>
</svg>
