<svg width="15" height="16" viewBox="0 0 15 16" fill="none" xmlns="http://www.w3.org/2000/svg">
<path d="M13.5937 13.5673L10.0537 10.0273C10.9044 9.00607 11.3286 7.69616 11.238 6.3701C11.1475 5.04403 10.5493 3.80392 9.56769 2.90773C8.58612 2.01154 7.29683 1.52827 5.96802 1.55846C4.63922 1.58866 3.37321 2.12998 2.43336 3.06983C1.49351 4.00968 0.952181 5.27569 0.921988 6.6045C0.891795 7.9333 1.37506 9.22259 2.27125 10.2042C3.16744 11.1857 4.40756 11.784 5.73362 11.8745C7.05968 11.965 8.3696 11.5408 9.39085 10.6901L12.9309 14.2301L13.5937 13.5673ZM1.87492 6.73014C1.87492 5.89575 2.12234 5.0801 2.5859 4.38633C3.04947 3.69256 3.70835 3.15183 4.47922 2.83252C5.2501 2.51322 6.09835 2.42967 6.9167 2.59245C7.73506 2.75523 8.48677 3.15703 9.07677 3.74703C9.66678 4.33704 10.0686 5.08875 10.2314 5.9071C10.3941 6.72546 10.3106 7.57371 9.99128 8.34459C9.67198 9.11546 9.13125 9.77434 8.43748 10.2379C7.74371 10.7015 6.92806 10.9489 6.09367 10.9489C4.97517 10.9477 3.90283 10.5028 3.11193 9.71188C2.32103 8.92098 1.87616 7.84864 1.87492 6.73014Z" fill="#32A7B1"/>
</svg>
