<svg width="24" height="24" viewBox="0 0 24 24" fill="none" xmlns="http://www.w3.org/2000/svg">
<path d="M11.9631 2C6.48003 2 1.9939 6.5 1.9939 12C1.9939 17.5 6.48003 22 11.9631 22C17.4461 22 21.9323 17.5 21.9323 12C21.9323 6.5 17.4461 2 11.9631 2ZM11.9631 20C7.56667 20 3.98773 16.41 3.98773 12C3.98773 7.59 7.56667 4 11.9631 4C16.3595 4 19.9384 7.59 19.9384 12C19.9384 16.41 16.3595 20 11.9631 20ZM16.5389 7.58L9.96924 14.17L7.38722 11.59L5.98157 13L9.96924 17L17.9446 9L16.5389 7.58Z" fill="#32A7B1"/>
</svg>
